<svg width="80" height="36" viewBox="0 0 80 36" fill="none" xmlns="http://www.w3.org/2000/svg">
<path d="M16.864 6.296C15.488 6.296 14.256 6.568 13.168 7.112C12.112 7.656 11.216 8.44 10.48 9.464C9.744 10.456 9.184 11.672 8.8 13.112C8.448 14.552 8.272 16.168 8.272 17.96C8.272 20.392 8.56 22.472 9.136 24.2C9.744 25.896 10.688 27.192 11.968 28.088C13.248 28.984 14.88 29.432 16.864 29.432C18.272 29.432 19.664 29.272 21.04 28.952C22.448 28.632 23.968 28.184 25.6 27.608V33.704C24.096 34.312 22.608 34.76 21.136 35.048C19.664 35.336 18.016 35.48 16.192 35.48C12.672 35.48 9.76 34.76 7.456 33.32C5.184 31.848 3.504 29.8 2.416 27.176C1.328 24.52 0.784 21.432 0.784 17.912C0.784 15.32 1.136 12.952 1.84 10.808C2.544 8.632 3.568 6.76 4.912 5.192C6.288 3.624 7.968 2.408 9.952 1.544C11.968 0.679998 14.272 0.247998 16.864 0.247998C18.56 0.247998 20.256 0.471998 21.952 0.919998C23.68 1.336 25.328 1.912 26.896 2.648L24.544 8.552C23.264 7.944 21.968 7.416 20.656 6.968C19.376 6.52 18.112 6.296 16.864 6.296ZM69.1453 6.296C67.7693 6.296 66.5373 6.568 65.4493 7.112C64.3933 7.656 63.4973 8.44 62.7613 9.464C62.0253 10.456 61.4653 11.672 61.0813 13.112C60.7293 14.552 60.5533 16.168 60.5533 17.96C60.5533 20.392 60.8413 22.472 61.4173 24.2C62.0253 25.896 62.9693 27.192 64.2493 28.088C65.5293 28.984 67.1613 29.432 69.1453 29.432C70.5533 29.432 71.9453 29.272 73.3213 28.952C74.7293 28.632 76.2493 28.184 77.8813 27.608V33.704C76.3773 34.312 74.8893 34.76 73.4173 35.048C71.9453 35.336 70.2973 35.48 68.4733 35.48C64.9533 35.48 62.0413 34.76 59.7373 33.32C57.4653 31.848 55.7853 29.8 54.6973 27.176C53.6093 24.52 53.0653 21.432 53.0653 17.912C53.0653 15.32 53.4173 12.952 54.1213 10.808C54.8253 8.632 55.8493 6.76 57.1933 5.192C58.5693 3.624 60.2493 2.408 62.2333 1.544C64.2493 0.679998 66.5533 0.247998 69.1453 0.247998C70.8413 0.247998 72.5373 0.471998 74.2333 0.919998C75.9613 1.336 77.6093 1.912 79.1773 2.648L76.8253 8.552C75.5453 7.944 74.2493 7.416 72.9373 6.968C71.6573 6.52 70.3933 6.296 69.1453 6.296Z" fill="#262626"/>
<path d="M52.1145 22.088C52.0825 24.232 51.7625 26.136 51.1545 27.8C50.5785 29.464 49.7305 30.872 48.6105 32.024C47.4905 33.144 46.1465 34.008 44.5785 34.616C43.0425 35.192 41.2985 35.48 39.3465 35.48C37.5225 35.48 35.8425 35.192 34.3065 34.616C32.7705 34.008 31.4425 33.144 30.3225 32.024C29.2025 30.872 28.3225 29.464 27.6825 27.8C27.0745 26.136 26.7545 24.232 26.7225 22.088H34.0185C34.0505 23.752 34.2425 25.16 34.5945 26.312C34.9785 27.432 35.5705 28.28 36.3705 28.856C37.1705 29.432 38.1945 29.72 39.4425 29.72C40.6905 29.72 41.6985 29.432 42.4665 28.856C43.2665 28.28 43.8585 27.432 44.2425 26.312C44.6265 25.16 44.8185 23.752 44.8185 22.088H52.1145Z" fill="#CBD2A4"/>
</svg>
